<mxfile host="65bd71144e" modified="2020-11-21T04:17:05.836Z" agent="5.0 (Windows NT 10.0; Win64; x64) AppleWebKit/537.36 (KHTML, like Gecko) Code/1.51.1 Chrome/83.0.4103.122 Electron/9.3.3 Safari/537.36" etag="LXBTrJ-BNkkokcWIa6MW" version="13.6.5" pages="2">
    <diagram id="5KzXanwMi3W0hUbelck6" name="csv → Excel">
        <mxGraphModel dx="1451" dy="929" grid="1" gridSize="10" guides="1" tooltips="1" connect="1" arrows="1" fold="1" page="1" pageScale="1" pageWidth="827" pageHeight="1169" math="0" shadow="0">
            <root>
                <mxCell id="0"/>
                <mxCell id="1" parent="0"/>
                <mxCell id="12" value="csv → Excel" style="swimlane;" parent="1" vertex="1">
                    <mxGeometry x="40" y="30" width="670" height="1040" as="geometry"/>
                </mxCell>
                <mxCell id="2" value="" style="ellipse;html=1;shape=startState;fillColor=#000000;strokeColor=#ff0000;" parent="12" vertex="1">
                    <mxGeometry x="200" y="40" width="30" height="30" as="geometry"/>
                </mxCell>
                <mxCell id="9" value="Excelファイル名をセットする" style="rounded=1;whiteSpace=wrap;html=1;arcSize=40;fontColor=#000000;fillColor=#ffffc0;strokeColor=#ff0000;" parent="12" vertex="1">
                    <mxGeometry x="120" y="270" width="190" height="40" as="geometry"/>
                </mxCell>
                <mxCell id="3" value="" style="html=1;verticalAlign=bottom;endArrow=open;endSize=8;strokeColor=#ff0000;" parent="12" source="2" target="15" edge="1">
                    <mxGeometry relative="1" as="geometry">
                        <mxPoint x="105" y="140" as="targetPoint"/>
                    </mxGeometry>
                </mxCell>
                <mxCell id="4" value="csvファイル名をセットする" style="rounded=1;whiteSpace=wrap;html=1;arcSize=40;fontColor=#000000;fillColor=#ffffc0;strokeColor=#ff0000;" parent="12" vertex="1">
                    <mxGeometry x="120" y="200" width="190" height="40" as="geometry"/>
                </mxCell>
                <mxCell id="10" value="" style="edgeStyle=orthogonalEdgeStyle;html=1;verticalAlign=bottom;endArrow=open;endSize=8;strokeColor=#ff0000;exitX=0.5;exitY=1;exitDx=0;exitDy=0;entryX=0.5;entryY=0;entryDx=0;entryDy=0;" parent="12" source="15" target="4" edge="1">
                    <mxGeometry relative="1" as="geometry">
                        <mxPoint x="330" y="400" as="targetPoint"/>
                    </mxGeometry>
                </mxCell>
                <mxCell id="13" value="csvファイルのパスをセットする" style="rounded=1;whiteSpace=wrap;html=1;arcSize=40;fontColor=#000000;fillColor=#ffffc0;strokeColor=#ff0000;" vertex="1" parent="12">
                    <mxGeometry x="120" y="340" width="190" height="40" as="geometry"/>
                </mxCell>
                <mxCell id="15" value="財務3表の年度数分繰り返す" style="shape=loopLimit;whiteSpace=wrap;html=1;" vertex="1" parent="12">
                    <mxGeometry x="110" y="120" width="210" height="40" as="geometry"/>
                </mxCell>
                <mxCell id="16" value="" style="edgeStyle=orthogonalEdgeStyle;html=1;verticalAlign=bottom;endArrow=open;endSize=8;strokeColor=#ff0000;exitX=0.5;exitY=1;exitDx=0;exitDy=0;" edge="1" parent="12" source="9" target="13">
                    <mxGeometry relative="1" as="geometry">
                        <mxPoint x="390" y="180" as="targetPoint"/>
                        <mxPoint x="295" y="210" as="sourcePoint"/>
                    </mxGeometry>
                </mxCell>
                <mxCell id="5" value="" style="edgeStyle=orthogonalEdgeStyle;html=1;verticalAlign=bottom;endArrow=open;endSize=8;strokeColor=#ff0000;entryX=0.5;entryY=0;entryDx=0;entryDy=0;" parent="12" source="4" edge="1" target="9">
                    <mxGeometry relative="1" as="geometry">
                        <mxPoint x="320" y="500" as="targetPoint"/>
                    </mxGeometry>
                </mxCell>
                <mxCell id="17" value="Excelファイルのパスをセットする" style="rounded=1;whiteSpace=wrap;html=1;arcSize=40;fontColor=#000000;fillColor=#ffffc0;strokeColor=#ff0000;" vertex="1" parent="12">
                    <mxGeometry x="110" y="410" width="210" height="40" as="geometry"/>
                </mxCell>
                <mxCell id="18" value="" style="edgeStyle=none;rounded=0;orthogonalLoop=1;jettySize=auto;html=1;" edge="1" parent="12" source="13" target="17">
                    <mxGeometry relative="1" as="geometry"/>
                </mxCell>
                <mxCell id="19" value="pandasでcsvを読み込む" style="whiteSpace=wrap;html=1;rounded=1;fontColor=#000000;strokeColor=#ff0000;fillColor=#ffffc0;arcSize=40;" vertex="1" parent="12">
                    <mxGeometry x="110" y="480" width="210" height="40" as="geometry"/>
                </mxCell>
                <mxCell id="20" value="" style="edgeStyle=none;rounded=0;orthogonalLoop=1;jettySize=auto;html=1;" edge="1" parent="12" source="17" target="19">
                    <mxGeometry relative="1" as="geometry"/>
                </mxCell>
                <mxCell id="25" value="Excel格納用のフォルダがある" style="rhombus;whiteSpace=wrap;html=1;rounded=1;fontColor=#000000;strokeColor=#ff0000;fillColor=#ffffc0;arcSize=40;" vertex="1" parent="12">
                    <mxGeometry x="92.5" y="560" width="245" height="80" as="geometry"/>
                </mxCell>
                <mxCell id="26" value="" style="edgeStyle=none;rounded=0;orthogonalLoop=1;jettySize=auto;html=1;" edge="1" parent="12" source="19" target="25">
                    <mxGeometry relative="1" as="geometry"/>
                </mxCell>
                <mxCell id="36" style="edgeStyle=orthogonalEdgeStyle;rounded=0;orthogonalLoop=1;jettySize=auto;html=1;exitX=0.5;exitY=1;exitDx=0;exitDy=0;entryX=0.5;entryY=1;entryDx=0;entryDy=0;" edge="1" parent="12" source="27" target="34">
                    <mxGeometry relative="1" as="geometry"/>
                </mxCell>
                <mxCell id="27" value="そのフォルダにExcelとして出力する" style="whiteSpace=wrap;html=1;rounded=1;fontColor=#000000;strokeColor=#ff0000;fillColor=#ffffc0;arcSize=40;" vertex="1" parent="12">
                    <mxGeometry x="100" y="760" width="230" height="40" as="geometry"/>
                </mxCell>
                <mxCell id="28" value="" style="edgeStyle=none;rounded=0;orthogonalLoop=1;jettySize=auto;html=1;" edge="1" parent="12" source="25" target="27">
                    <mxGeometry relative="1" as="geometry"/>
                </mxCell>
                <mxCell id="32" style="edgeStyle=orthogonalEdgeStyle;rounded=0;orthogonalLoop=1;jettySize=auto;html=1;exitX=0.5;exitY=1;exitDx=0;exitDy=0;entryX=0.5;entryY=0;entryDx=0;entryDy=0;" edge="1" parent="12" source="29" target="27">
                    <mxGeometry relative="1" as="geometry">
                        <mxPoint x="215" y="755" as="targetPoint"/>
                        <Array as="points">
                            <mxPoint x="480" y="710"/>
                            <mxPoint x="215" y="710"/>
                        </Array>
                    </mxGeometry>
                </mxCell>
                <mxCell id="29" value="フォルダを作る" style="whiteSpace=wrap;html=1;rounded=1;fontColor=#000000;strokeColor=#ff0000;fillColor=#ffffc0;arcSize=40;" vertex="1" parent="12">
                    <mxGeometry x="410" y="640" width="140" height="40" as="geometry"/>
                </mxCell>
                <mxCell id="30" value="" style="edgeStyle=none;rounded=0;orthogonalLoop=1;jettySize=auto;html=1;exitX=0.961;exitY=0.513;exitDx=0;exitDy=0;entryX=0.5;entryY=0;entryDx=0;entryDy=0;exitPerimeter=0;" edge="1" parent="12" source="25" target="29">
                    <mxGeometry relative="1" as="geometry">
                        <Array as="points">
                            <mxPoint x="480" y="600"/>
                        </Array>
                    </mxGeometry>
                </mxCell>
                <mxCell id="11" value="" style="ellipse;html=1;shape=endState;fillColor=#000000;strokeColor=#ff0000;" parent="12" vertex="1">
                    <mxGeometry x="200" y="930" width="30" height="30" as="geometry"/>
                </mxCell>
                <mxCell id="35" style="edgeStyle=orthogonalEdgeStyle;rounded=0;orthogonalLoop=1;jettySize=auto;html=1;exitX=0.5;exitY=0;exitDx=0;exitDy=0;entryX=0.5;entryY=0;entryDx=0;entryDy=0;" edge="1" parent="12" source="34" target="11">
                    <mxGeometry relative="1" as="geometry"/>
                </mxCell>
                <mxCell id="34" value="" style="shape=loopLimit;whiteSpace=wrap;html=1;rotation=-180;" vertex="1" parent="12">
                    <mxGeometry x="110" y="845" width="210" height="30" as="geometry"/>
                </mxCell>
            </root>
        </mxGraphModel>
    </diagram>
    <diagram id="aYHQPFLuu3nZpzwuqgSK" name="Excelを1つにまとめる">
        <mxGraphModel dx="1233" dy="790" grid="1" gridSize="10" guides="1" tooltips="1" connect="1" arrows="1" fold="1" page="1" pageScale="1" pageWidth="827" pageHeight="1169" math="0" shadow="0">
            <root>
                <mxCell id="Z-_M9Mf5jj2tVnRVdrs4-0"/>
                <mxCell id="Z-_M9Mf5jj2tVnRVdrs4-1" parent="Z-_M9Mf5jj2tVnRVdrs4-0"/>
            </root>
        </mxGraphModel>
    </diagram>
</mxfile>